{
	"asset":{
		"generator":"Khronos glTF Blender I/O v3.5.30",
		"version":"2.0"
	},
	"scene":0,
	"scenes":[
		{
			"name":"Scene",
			"nodes":[
				0
			]
		}
	],
	"nodes":[
		{
			"mesh":0,
			"name":"Isla",
			"scale":[
				16.663759231567383,
				16.663759231567383,
				16.663759231567383
			],
			"translation":[
				3.1691322326660156,
				0,
				0.20385289192199707
			]
		}
	],
	"meshes":[
		{
			"name":"Plane.001",
			"primitives":[
				{
					"attributes":{
						"POSITION":0,
						"TEXCOORD_0":1,
						"NORMAL":2
					},
					"indices":3
				}
			]
		}
	],
	"accessors":[
		{
			"bufferView":0,
			"componentType":5126,
			"count":586,
			"max":[
				0.9620410203933716,
				0.03284414857625961,
				1.5627325773239136
			],
			"min":[
				-1.4173883199691772,
				-0.22574569284915924,
				-1.0000001192092896
			],
			"type":"VEC3"
		},
		{
			"bufferView":1,
			"componentType":5126,
			"count":586,
			"type":"VEC2"
		},
		{
			"bufferView":2,
			"componentType":5126,
			"count":586,
			"type":"VEC3"
		},
		{
			"bufferView":3,
			"componentType":5123,
			"count":1152,
			"type":"SCALAR"
		}
	],
	"bufferViews":[
		{
			"buffer":0,
			"byteLength":7032,
			"byteOffset":0,
			"target":34962
		},
		{
			"buffer":0,
			"byteLength":4688,
			"byteOffset":7032,
			"target":34962
		},
		{
			"buffer":0,
			"byteLength":7032,
			"byteOffset":11720,
			"target":34962
		},
		{
			"buffer":0,
			"byteLength":2304,
			"byteOffset":18752,
			"target":34963
		}
	],
	"buffers":[
		{
			"byteLength":21056,
			"uri":"data:application/octet-stream;base64,"
		}
	]
}
