{
	"asset":{
		"generator":"Khronos glTF Blender I/O v3.5.30",
		"version":"2.0"
	},
	"scene":0,
	"scenes":[
		{
			"name":"Scene",
			"nodes":[
				0
			]
		}
	],
	"nodes":[
		{
			"mesh":0,
			"name":"Rocas",
			"translation":[
				-18.00450325012207,
				0,
				4.468270778656006
			]
		}
	],
	"meshes":[
		{
			"name":"Sphere.002",
			"primitives":[
				{
					"attributes":{
						"POSITION":0,
						"TEXCOORD_0":1,
						"NORMAL":2
					},
					"indices":3
				}
			]
		}
	],
	"accessors":[
		{
			"bufferView":0,
			"componentType":5126,
			"count":1490,
			"max":[
				33.72397232055664,
				3.1795902252197266,
				17.285572052001953
			],
			"min":[
				1.9228191375732422,
				-0.7223306894302368,
				-19.426069259643555
			],
			"type":"VEC3"
		},
		{
			"bufferView":1,
			"componentType":5126,
			"count":1490,
			"type":"VEC2"
		},
		{
			"bufferView":2,
			"componentType":5126,
			"count":1490,
			"type":"VEC3"
		},
		{
			"bufferView":3,
			"componentType":5123,
			"count":2340,
			"type":"SCALAR"
		}
	],
	"bufferViews":[
		{
			"buffer":0,
			"byteLength":17880,
			"byteOffset":0,
			"target":34962
		},
		{
			"buffer":0,
			"byteLength":11920,
			"byteOffset":17880,
			"target":34962
		},
		{
			"buffer":0,
			"byteLength":17880,
			"byteOffset":29800,
			"target":34962
		},
		{
			"buffer":0,
			"byteLength":4680,
			"byteOffset":47680,
			"target":34963
		}
	],
	"buffers":[
		{
			"byteLength":52360,
			"uri":"data:application/octet-stream;base64,"
		}
	]
}
