{
	"asset":{
		"generator":"Khronos glTF Blender I/O v3.5.30",
		"version":"2.0"
	},
	"scene":0,
	"scenes":[
		{
			"name":"Scene",
			"nodes":[
				0
			]
		}
	],
	"nodes":[
		{
			"mesh":0,
			"name":"Circle.002",
			"translation":[
				-2.4773011207580566,
				-1.4729392528533936,
				6.867091178894043
			]
		}
	],
	"meshes":[
		{
			"name":"Circle.014",
			"primitives":[
				{
					"attributes":{
						"POSITION":0,
						"TEXCOORD_0":1,
						"NORMAL":2
					},
					"indices":3
				}
			]
		}
	],
	"accessors":[
		{
			"bufferView":0,
			"componentType":5126,
			"count":1906,
			"max":[
				19.527530670166016,
				7.834131240844727,
				20.227558135986328
			],
			"min":[
				-11.727802276611328,
				-0.7534580230712891,
				-19.299270629882812
			],
			"type":"VEC3"
		},
		{
			"bufferView":1,
			"componentType":5126,
			"count":1906,
			"type":"VEC2"
		},
		{
			"bufferView":2,
			"componentType":5126,
			"count":1906,
			"type":"VEC3"
		},
		{
			"bufferView":3,
			"componentType":5123,
			"count":8976,
			"type":"SCALAR"
		}
	],
	"bufferViews":[
		{
			"buffer":0,
			"byteLength":22872,
			"byteOffset":0,
			"target":34962
		},
		{
			"buffer":0,
			"byteLength":15248,
			"byteOffset":22872,
			"target":34962
		},
		{
			"buffer":0,
			"byteLength":22872,
			"byteOffset":38120,
			"target":34962
		},
		{
			"buffer":0,
			"byteLength":17952,
			"byteOffset":60992,
			"target":34963
		}
	],
	"buffers":[
		{
			"byteLength":78944,
			"uri":"data:application/octet-stream;base64,"
		}
	]
}
