{
	"asset":{
		"generator":"Khronos glTF Blender I/O v3.5.30",
		"version":"2.0"
	},
	"scene":0,
	"scenes":[
		{
			"name":"Scene",
			"nodes":[
				0
			]
		}
	],
	"nodes":[
		{
			"mesh":0,
			"name":"Honguito2"
		}
	],
	"meshes":[
		{
			"name":"Sphere.014",
			"primitives":[
				{
					"attributes":{
						"POSITION":0,
						"TEXCOORD_0":1,
						"NORMAL":2
					},
					"indices":3
				}
			]
		}
	],
	"accessors":[
		{
			"bufferView":0,
			"componentType":5126,
			"count":206,
			"max":[
				0.11980429291725159,
				0.12487417459487915,
				0.12311695516109467
			],
			"min":[
				-0.11980429291725159,
				-0.006965506821870804,
				-0.12311504781246185
			],
			"type":"VEC3"
		},
		{
			"bufferView":1,
			"componentType":5126,
			"count":206,
			"type":"VEC2"
		},
		{
			"bufferView":2,
			"componentType":5126,
			"count":206,
			"type":"VEC3"
		},
		{
			"bufferView":3,
			"componentType":5123,
			"count":972,
			"type":"SCALAR"
		}
	],
	"bufferViews":[
		{
			"buffer":0,
			"byteLength":2472,
			"byteOffset":0,
			"target":34962
		},
		{
			"buffer":0,
			"byteLength":1648,
			"byteOffset":2472,
			"target":34962
		},
		{
			"buffer":0,
			"byteLength":2472,
			"byteOffset":4120,
			"target":34962
		},
		{
			"buffer":0,
			"byteLength":1944,
			"byteOffset":6592,
			"target":34963
		}
	],
	"buffers":[
		{
			"byteLength":8536,
			"uri":"data:application/octet-stream;base64,"
		}
	]
}
