{
	"asset":{
		"generator":"Khronos glTF Blender I/O v3.5.30",
		"version":"2.0"
	},
	"scene":0,
	"scenes":[
		{
			"name":"Scene",
			"nodes":[
				0
			]
		}
	],
	"nodes":[
		{
			"mesh":0,
			"name":"Honguitos",
			"rotation":[
				0,
				-0.9944979548454285,
				0,
				0.10475613921880722
			],
			"scale":[
				0.0713418573141098,
				0.0713418573141098,
				0.0713418573141098
			],
			"translation":[
				-5.400073051452637,
				0.08090054988861084,
				20.836036682128906
			]
		}
	],
	"meshes":[
		{
			"name":"Plane.070",
			"primitives":[
				{
					"attributes":{
						"POSITION":0,
						"TEXCOORD_0":1,
						"NORMAL":2
					},
					"indices":3
				}
			]
		}
	],
	"accessors":[
		{
			"bufferView":0,
			"componentType":5126,
			"count":18600,
			"max":[
				21.474077224731445,
				4.675335884094238,
				444.4767761230469
			],
			"min":[
				-325.49310302734375,
				-1.8242902755737305,
				-67.94993591308594
			],
			"type":"VEC3"
		},
		{
			"bufferView":1,
			"componentType":5126,
			"count":18600,
			"type":"VEC2"
		},
		{
			"bufferView":2,
			"componentType":5126,
			"count":18600,
			"type":"VEC3"
		},
		{
			"bufferView":3,
			"componentType":5123,
			"count":87630,
			"type":"SCALAR"
		}
	],
	"bufferViews":[
		{
			"buffer":0,
			"byteLength":223200,
			"byteOffset":0,
			"target":34962
		},
		{
			"buffer":0,
			"byteLength":148800,
			"byteOffset":223200,
			"target":34962
		},
		{
			"buffer":0,
			"byteLength":223200,
			"byteOffset":372000,
			"target":34962
		},
		{
			"buffer":0,
			"byteLength":175260,
			"byteOffset":595200,
			"target":34963
		}
	],
	"buffers":[
		{
			"byteLength":770460,
			"uri":"data:application/octet-stream;base64,"
		}
	]
}
