{
	"asset":{
		"generator":"Khronos glTF Blender I/O v3.5.30",
		"version":"2.0"
	},
	"scene":0,
	"scenes":[
		{
			"name":"Scene",
			"nodes":[
				0
			]
		}
	],
	"nodes":[
		{
			"mesh":0,
			"name":"Isla_Terreno"
		}
	],
	"meshes":[
		{
			"name":"Plane.021",
			"primitives":[
				{
					"attributes":{
						"POSITION":0,
						"TEXCOORD_0":1,
						"NORMAL":2
					},
					"indices":3
				}
			]
		}
	],
	"accessors":[
		{
			"bufferView":0,
			"componentType":5126,
			"count":177,
			"max":[
				19.20035171508789,
				0.5473069548606873,
				26.244853973388672
			],
			"min":[
				-20.449886322021484,
				-0.7856984734535217,
				-16.45990753173828
			],
			"type":"VEC3"
		},
		{
			"bufferView":1,
			"componentType":5126,
			"count":177,
			"type":"VEC2"
		},
		{
			"bufferView":2,
			"componentType":5126,
			"count":177,
			"type":"VEC3"
		},
		{
			"bufferView":3,
			"componentType":5123,
			"count":360,
			"type":"SCALAR"
		}
	],
	"bufferViews":[
		{
			"buffer":0,
			"byteLength":2124,
			"byteOffset":0,
			"target":34962
		},
		{
			"buffer":0,
			"byteLength":1416,
			"byteOffset":2124,
			"target":34962
		},
		{
			"buffer":0,
			"byteLength":2124,
			"byteOffset":3540,
			"target":34962
		},
		{
			"buffer":0,
			"byteLength":720,
			"byteOffset":5664,
			"target":34963
		}
	],
	"buffers":[
		{
			"byteLength":6384,
			"uri":"data:application/octet-stream;base64,"
		}
	]
}
