{
	"asset":{
		"generator":"Khronos glTF Blender I/O v3.5.30",
		"version":"2.0"
	},
	"scene":0,
	"scenes":[
		{
			"name":"Scene",
			"nodes":[
				0
			]
		}
	],
	"nodes":[
		{
			"mesh":0,
			"name":"Pasto3"
		}
	],
	"meshes":[
		{
			"name":"Plane.032",
			"primitives":[
				{
					"attributes":{
						"POSITION":0,
						"TEXCOORD_0":1,
						"NORMAL":2
					},
					"indices":3
				}
			]
		}
	],
	"accessors":[
		{
			"bufferView":0,
			"componentType":5126,
			"count":204,
			"max":[
				0.16265901923179626,
				0.39415329694747925,
				0.1481199562549591
			],
			"min":[
				-0.14330068230628967,
				-0.018071457743644714,
				-0.12496019899845123
			],
			"type":"VEC3"
		},
		{
			"bufferView":1,
			"componentType":5126,
			"count":204,
			"type":"VEC2"
		},
		{
			"bufferView":2,
			"componentType":5126,
			"count":204,
			"type":"VEC3"
		},
		{
			"bufferView":3,
			"componentType":5123,
			"count":510,
			"type":"SCALAR"
		}
	],
	"bufferViews":[
		{
			"buffer":0,
			"byteLength":2448,
			"byteOffset":0,
			"target":34962
		},
		{
			"buffer":0,
			"byteLength":1632,
			"byteOffset":2448,
			"target":34962
		},
		{
			"buffer":0,
			"byteLength":2448,
			"byteOffset":4080,
			"target":34962
		},
		{
			"buffer":0,
			"byteLength":1020,
			"byteOffset":6528,
			"target":34963
		}
	],
	"buffers":[
		{
			"byteLength":7548,
			"uri":"data:application/octet-stream;base64,"
		}
	]
}
