{
	"asset":{
		"generator":"Khronos glTF Blender I/O v3.5.30",
		"version":"2.0"
	},
	"scene":0,
	"scenes":[
		{
			"name":"Scene",
			"nodes":[
				0
			]
		}
	],
	"nodes":[
		{
			"mesh":0,
			"name":"Pasto2"
		}
	],
	"meshes":[
		{
			"name":"Plane.015",
			"primitives":[
				{
					"attributes":{
						"POSITION":0,
						"TEXCOORD_0":1,
						"NORMAL":2
					},
					"indices":3
				}
			]
		}
	],
	"accessors":[
		{
			"bufferView":0,
			"componentType":5126,
			"count":720,
			"max":[
				0.3921351432800293,
				0.5859788656234741,
				0.27232182025909424
			],
			"min":[
				-0.3921351432800293,
				-0.03735765814781189,
				-0.27232182025909424
			],
			"type":"VEC3"
		},
		{
			"bufferView":1,
			"componentType":5126,
			"count":720,
			"type":"VEC2"
		},
		{
			"bufferView":2,
			"componentType":5126,
			"count":720,
			"type":"VEC3"
		},
		{
			"bufferView":3,
			"componentType":5123,
			"count":1800,
			"type":"SCALAR"
		}
	],
	"bufferViews":[
		{
			"buffer":0,
			"byteLength":8640,
			"byteOffset":0,
			"target":34962
		},
		{
			"buffer":0,
			"byteLength":5760,
			"byteOffset":8640,
			"target":34962
		},
		{
			"buffer":0,
			"byteLength":8640,
			"byteOffset":14400,
			"target":34962
		},
		{
			"buffer":0,
			"byteLength":3600,
			"byteOffset":23040,
			"target":34963
		}
	],
	"buffers":[
		{
			"byteLength":26640,
			"uri":"data:application/octet-stream;base64,"
		}
	]
}
