{
	"asset":{
		"generator":"Khronos glTF Blender I/O v3.5.30",
		"version":"2.0"
	},
	"scene":0,
	"scenes":[
		{
			"name":"Scene",
			"nodes":[
				0
			]
		}
	],
	"nodes":[
		{
			"mesh":0,
			"name":"Pasto.009",
			"scale":[
				0.11005893349647522,
				0.11005893349647522,
				0.11005893349647522
			],
			"translation":[
				-18.53244972229004,
				0.04344838857650757,
				16.663728713989258
			]
		}
	],
	"meshes":[
		{
			"name":"Plane.048",
			"primitives":[
				{
					"attributes":{
						"POSITION":0,
						"TEXCOORD_0":1,
						"NORMAL":2
					},
					"indices":3
				}
			]
		}
	],
	"accessors":[
		{
			"bufferView":0,
			"componentType":5126,
			"count":96,
			"max":[
				-0.07868308573961258,
				6.045602321624756,
				-4.914820671081543
			],
			"min":[
				-2.995352268218994,
				-0.8532752990722656,
				-9.319258689880371
			],
			"type":"VEC3"
		},
		{
			"bufferView":1,
			"componentType":5126,
			"count":96,
			"type":"VEC2"
		},
		{
			"bufferView":2,
			"componentType":5126,
			"count":96,
			"type":"VEC3"
		},
		{
			"bufferView":3,
			"componentType":5123,
			"count":240,
			"type":"SCALAR"
		}
	],
	"bufferViews":[
		{
			"buffer":0,
			"byteLength":1152,
			"byteOffset":0,
			"target":34962
		},
		{
			"buffer":0,
			"byteLength":768,
			"byteOffset":1152,
			"target":34962
		},
		{
			"buffer":0,
			"byteLength":1152,
			"byteOffset":1920,
			"target":34962
		},
		{
			"buffer":0,
			"byteLength":480,
			"byteOffset":3072,
			"target":34963
		}
	],
	"buffers":[
		{
			"byteLength":3552,
			"uri":"data:application/octet-stream;base64,"
		}
	]
}
