{
	"asset":{
		"generator":"Khronos glTF Blender I/O v3.5.30",
		"version":"2.0"
	},
	"scene":0,
	"scenes":[
		{
			"name":"Scene",
			"nodes":[
				0
			]
		}
	],
	"nodes":[
		{
			"mesh":0,
			"name":"Pasto1"
		}
	],
	"meshes":[
		{
			"name":"Plane.048",
			"primitives":[
				{
					"attributes":{
						"POSITION":0,
						"TEXCOORD_0":1,
						"NORMAL":2
					},
					"indices":3
				}
			]
		}
	],
	"accessors":[
		{
			"bufferView":0,
			"componentType":5126,
			"count":312,
			"max":[
				0.2333431988954544,
				0.6042153835296631,
				0.19491522014141083
			],
			"min":[
				-0.16050338745117188,
				-0.055594176054000854,
				-0.29757580161094666
			],
			"type":"VEC3"
		},
		{
			"bufferView":1,
			"componentType":5126,
			"count":312,
			"type":"VEC2"
		},
		{
			"bufferView":2,
			"componentType":5126,
			"count":312,
			"type":"VEC3"
		},
		{
			"bufferView":3,
			"componentType":5123,
			"count":780,
			"type":"SCALAR"
		}
	],
	"bufferViews":[
		{
			"buffer":0,
			"byteLength":3744,
			"byteOffset":0,
			"target":34962
		},
		{
			"buffer":0,
			"byteLength":2496,
			"byteOffset":3744,
			"target":34962
		},
		{
			"buffer":0,
			"byteLength":3744,
			"byteOffset":6240,
			"target":34962
		},
		{
			"buffer":0,
			"byteLength":1560,
			"byteOffset":9984,
			"target":34963
		}
	],
	"buffers":[
		{
			"byteLength":11544,
			"uri":"data:application/octet-stream;base64,"
		}
	]
}
