{
	"asset":{
		"generator":"Khronos glTF Blender I/O v3.5.30",
		"version":"2.0"
	},
	"scene":0,
	"scenes":[
		{
			"name":"Scene",
			"nodes":[
				0
			]
		}
	],
	"nodes":[
		{
			"mesh":0,
			"name":"Rocas3",
			"rotation":[
				0,
				0.9102509617805481,
				0,
				0.41405707597732544
			],
			"scale":[
				0.05501765012741089,
				0.05501765012741089,
				0.05501765012741089
			],
			"translation":[
				11.57287311553955,
				0.07666908204555511,
				13.765320777893066
			]
		}
	],
	"meshes":[
		{
			"name":"Sphere.021",
			"primitives":[
				{
					"attributes":{
						"POSITION":0,
						"TEXCOORD_0":1,
						"NORMAL":2
					},
					"indices":3
				}
			]
		}
	],
	"accessors":[
		{
			"bufferView":0,
			"componentType":5126,
			"count":9194,
			"max":[
				535.8206176757812,
				3.178483486175537,
				213.7464141845703
			],
			"min":[
				-31.62964630126953,
				-3.2401509284973145,
				-348.5861511230469
			],
			"type":"VEC3"
		},
		{
			"bufferView":1,
			"componentType":5126,
			"count":9194,
			"type":"VEC2"
		},
		{
			"bufferView":2,
			"componentType":5126,
			"count":9194,
			"type":"VEC3"
		},
		{
			"bufferView":3,
			"componentType":5123,
			"count":14229,
			"type":"SCALAR"
		}
	],
	"bufferViews":[
		{
			"buffer":0,
			"byteLength":110328,
			"byteOffset":0,
			"target":34962
		},
		{
			"buffer":0,
			"byteLength":73552,
			"byteOffset":110328,
			"target":34962
		},
		{
			"buffer":0,
			"byteLength":110328,
			"byteOffset":183880,
			"target":34962
		},
		{
			"buffer":0,
			"byteLength":28458,
			"byteOffset":294208,
			"target":34963
		}
	],
	"buffers":[
		{
			"byteLength":322668,
			"uri":"data:application/octet-stream;base64,"
		}
	]
}
