{
	"asset":{
		"generator":"Khronos glTF Blender I/O v3.5.30",
		"version":"2.0"
	},
	"scene":0,
	"scenes":[
		{
			"name":"Scene",
			"nodes":[
				0
			]
		}
	],
	"nodes":[
		{
			"mesh":0,
			"name":"Centro"
		}
	],
	"meshes":[
		{
			"name":"Plane.002",
			"primitives":[
				{
					"attributes":{
						"POSITION":0,
						"TEXCOORD_0":1,
						"NORMAL":2
					},
					"indices":3
				}
			]
		}
	],
	"accessors":[
		{
			"bufferView":0,
			"componentType":5126,
			"count":1038,
			"max":[
				6.548037528991699,
				0.4261852502822876,
				6.548037528991699
			],
			"min":[
				-6.548037528991699,
				0,
				-6.548037528991699
			],
			"type":"VEC3"
		},
		{
			"bufferView":1,
			"componentType":5126,
			"count":1038,
			"type":"VEC2"
		},
		{
			"bufferView":2,
			"componentType":5126,
			"count":1038,
			"type":"VEC3"
		},
		{
			"bufferView":3,
			"componentType":5123,
			"count":2712,
			"type":"SCALAR"
		}
	],
	"bufferViews":[
		{
			"buffer":0,
			"byteLength":12456,
			"byteOffset":0,
			"target":34962
		},
		{
			"buffer":0,
			"byteLength":8304,
			"byteOffset":12456,
			"target":34962
		},
		{
			"buffer":0,
			"byteLength":12456,
			"byteOffset":20760,
			"target":34962
		},
		{
			"buffer":0,
			"byteLength":5424,
			"byteOffset":33216,
			"target":34963
		}
	],
	"buffers":[
		{
			"byteLength":38640,
			"uri":"data:application/octet-stream;base64,"
		}
	]
}
