{
	"asset":{
		"generator":"Khronos glTF Blender I/O v3.5.30",
		"version":"2.0"
	},
	"scene":0,
	"scenes":[
		{
			"name":"Scene",
			"nodes":[
				0
			]
		}
	],
	"nodes":[
		{
			"mesh":0,
			"name":"Torre"
		}
	],
	"meshes":[
		{
			"name":"Plane.006",
			"primitives":[
				{
					"attributes":{
						"POSITION":0,
						"TEXCOORD_0":1,
						"NORMAL":2
					},
					"indices":3
				}
			]
		}
	],
	"accessors":[
		{
			"bufferView":0,
			"componentType":5126,
			"count":252,
			"max":[
				2.3754847049713135,
				4.214832305908203,
				2.420581340789795
			],
			"min":[
				-2.382833480834961,
				0.2170172482728958,
				-2.3989601135253906
			],
			"type":"VEC3"
		},
		{
			"bufferView":1,
			"componentType":5126,
			"count":252,
			"type":"VEC2"
		},
		{
			"bufferView":2,
			"componentType":5126,
			"count":252,
			"type":"VEC3"
		},
		{
			"bufferView":3,
			"componentType":5123,
			"count":414,
			"type":"SCALAR"
		}
	],
	"bufferViews":[
		{
			"buffer":0,
			"byteLength":3024,
			"byteOffset":0,
			"target":34962
		},
		{
			"buffer":0,
			"byteLength":2016,
			"byteOffset":3024,
			"target":34962
		},
		{
			"buffer":0,
			"byteLength":3024,
			"byteOffset":5040,
			"target":34962
		},
		{
			"buffer":0,
			"byteLength":828,
			"byteOffset":8064,
			"target":34963
		}
	],
	"buffers":[
		{
			"byteLength":8892,
			"uri":"data:application/octet-stream;base64,"
		}
	]
}
